<svg width="775" height="350" viewBox="0 0 775 350" fill="none" xmlns="http://www.w3.org/2000/svg">
<path d="M119.432 128.44C152.242 128.44 178.362 137.653 197.792 156.077C217.221 174.502 226.937 199.738 226.941 231.786C226.941 269.724 215.248 298.909 191.863 319.343C168.477 339.777 135.033 349.996 91.5297 350C53.7479 350 23.238 343.888 0 331.663V269.708C12.2273 276.203 26.4678 281.501 42.7216 285.602C58.9754 289.703 74.3761 291.749 88.9237 291.742C132.726 291.742 154.629 273.809 154.633 237.943C154.633 203.78 131.958 186.699 86.6092 186.699C77.5027 186.78 68.4174 187.595 59.4418 189.136C49.5387 190.765 41.4896 192.502 35.2943 194.349L6.73938 178.997L19.5127 5.50403H203.703V66.5145H82.5108L76.2437 133.326L84.3706 131.7C93.8072 129.531 105.494 128.444 119.432 128.44Z" fill="#F2F2F2"/>
<path d="M503.174 175.353C503.174 234.731 493.457 278.683 474.024 307.21C454.591 335.737 424.664 350 384.243 350C345.058 350 315.52 335.27 295.629 305.811C275.737 276.351 265.789 232.865 265.785 175.353C265.785 115.353 275.463 71.1265 294.818 42.6735C314.173 14.2206 343.984 -0.00388621 384.249 7.9641e-07C423.422 7.9641e-07 453.036 14.8834 473.091 44.6501C493.146 74.4168 503.174 117.984 503.174 175.353ZM337.155 175.458C337.155 217.161 340.75 247.045 347.94 265.108C355.131 283.171 367.233 292.202 384.249 292.202C400.962 292.202 413.024 283.056 420.435 264.764C427.847 246.471 431.559 216.703 431.571 175.458C431.571 133.758 427.82 103.801 420.319 85.5861C412.818 67.3716 400.794 58.2624 384.249 58.2585C367.397 58.2585 355.333 67.3677 348.057 85.5861C340.781 103.805 337.147 133.762 337.155 175.458Z" fill="#F2F2F2"/>
<path d="M775 175.353C775 234.731 765.283 278.683 745.85 307.21C726.417 335.737 696.49 350 656.069 350C616.888 350 587.35 335.27 567.455 305.811C547.559 276.351 537.609 232.865 537.605 175.353C537.605 115.353 547.283 71.1265 566.638 42.6735C585.994 14.2206 615.806 -0.00388621 656.075 7.9641e-07C695.248 7.9641e-07 724.862 14.8834 744.917 44.6501C764.972 74.4168 775 117.984 775 175.353ZM608.981 175.458C608.981 217.161 612.576 247.045 619.766 265.108C626.957 283.171 639.06 292.202 656.075 292.202C672.788 292.202 684.85 283.056 692.262 264.764C699.673 246.471 703.385 216.703 703.397 175.458C703.397 133.758 699.646 103.801 692.145 85.5861C684.644 67.3716 672.62 58.2624 656.075 58.2585C639.223 58.2585 627.159 67.3677 619.883 85.5861C612.607 103.805 608.973 133.762 608.981 175.458Z" fill="#F2F2F2"/>
<path d="M430.185 337.4H367.869C359.223 337.4 351.965 330.328 352.128 321.658C352.201 317.607 353.861 313.747 356.749 310.907C359.638 308.067 363.526 306.473 367.577 306.469H402.376C411.418 306.469 419.02 299.35 419.236 290.313C419.287 288.107 418.896 285.914 418.087 283.861C417.279 281.808 416.069 279.937 414.527 278.359C412.986 276.78 411.145 275.525 409.113 274.667C407.08 273.809 404.897 273.366 402.691 273.364H335.326C333.944 272.145 334.784 270.606 335.985 270.606H402.318C413.12 270.606 422.139 279.451 421.964 290.249C421.87 295.309 419.795 300.13 416.186 303.677C412.577 307.224 407.722 309.215 402.662 309.221H367.816C360.908 309.221 355.06 314.632 354.856 321.541C354.8 323.244 355.087 324.941 355.699 326.53C356.311 328.12 357.237 329.57 358.421 330.795C359.605 332.02 361.023 332.994 362.591 333.66C364.159 334.326 365.845 334.67 367.548 334.672H430.103C430.465 334.664 430.816 334.794 431.085 335.036C431.354 335.277 431.522 335.612 431.555 335.972C431.562 336.156 431.532 336.34 431.466 336.513C431.4 336.686 431.301 336.843 431.173 336.977C431.045 337.11 430.892 337.216 430.722 337.289C430.552 337.362 430.369 337.4 430.185 337.4Z" fill="#1C2B6B"/>
<path d="M433.974 342.747H440.999V328.701H433.974C432.121 328.709 430.346 329.448 429.035 330.759C427.725 332.069 426.985 333.844 426.978 335.698C426.971 336.621 427.147 337.536 427.495 338.391C427.844 339.246 428.358 340.024 429.008 340.679C429.658 341.334 430.432 341.854 431.284 342.209C432.136 342.564 433.05 342.747 433.974 342.747Z" fill="url(#paint0_linear)"/>
<path d="M447.947 333.826H444.683C444.33 333.826 443.992 333.686 443.743 333.437C443.494 333.188 443.354 332.849 443.354 332.497C443.354 332.144 443.494 331.806 443.743 331.557C443.992 331.308 444.33 331.167 444.683 331.167H447.947C448.3 331.167 448.638 331.308 448.887 331.557C449.137 331.806 449.277 332.144 449.277 332.497C449.277 332.849 449.137 333.188 448.887 333.437C448.638 333.686 448.3 333.826 447.947 333.826Z" fill="#192B59"/>
<path d="M447.947 340.281H444.683C444.33 340.281 443.992 340.141 443.743 339.891C443.494 339.642 443.354 339.304 443.354 338.951C443.354 338.599 443.494 338.26 443.743 338.011C443.992 337.762 444.33 337.622 444.683 337.622H447.947C448.3 337.622 448.638 337.762 448.887 338.011C449.137 338.26 449.277 338.599 449.277 338.951C449.277 339.304 449.137 339.642 448.887 339.891C448.638 340.141 448.3 340.281 447.947 340.281Z" fill="#192B59"/>
<path d="M441.796 327.331H441.79C440.428 327.331 439.324 328.435 439.324 329.797V341.651C439.324 343.013 440.428 344.117 441.79 344.117H441.796C443.158 344.117 444.262 343.013 444.262 341.651V329.797C444.262 328.435 443.158 327.331 441.796 327.331Z" fill="url(#paint1_linear)"/>
<path d="M330.597 140.568H184.598C178.88 140.568 174.244 145.204 174.244 150.923V174.746C174.244 180.465 178.88 185.101 184.598 185.101H330.597C336.315 185.101 340.951 180.465 340.951 174.746V150.923C340.951 145.204 336.315 140.568 330.597 140.568Z" fill="url(#paint2_linear)"/>
<path d="M194.551 175.557H264.679C266.127 175.557 267.517 176.132 268.541 177.157C269.566 178.182 270.141 179.571 270.141 181.02V185.101H189.088V181.02C189.088 179.571 189.663 178.182 190.688 177.157C191.712 176.132 193.102 175.557 194.551 175.557Z" fill="url(#paint3_linear)"/>
<path d="M192.347 161.26C194.147 161.26 195.606 159.801 195.606 158.001C195.606 156.201 194.147 154.742 192.347 154.742C190.547 154.742 189.088 156.201 189.088 158.001C189.088 159.801 190.547 161.26 192.347 161.26Z" fill="#20D357"/>
<path d="M202.007 161.26C203.807 161.26 205.266 159.801 205.266 158.001C205.266 156.201 203.807 154.742 202.007 154.742C200.207 154.742 198.748 156.201 198.748 158.001C198.748 159.801 200.207 161.26 202.007 161.26Z" fill="#FFAC00"/>
<path d="M211.661 161.26C213.461 161.26 214.92 159.801 214.92 158.001C214.92 156.201 213.461 154.742 211.661 154.742C209.861 154.742 208.402 156.201 208.402 158.001C208.402 159.801 209.861 161.26 211.661 161.26Z" fill="#E64D4E"/>
<path d="M333.382 159.178C334.026 155.211 331.332 151.473 327.366 150.829C323.399 150.185 319.662 152.879 319.018 156.846C318.374 160.813 321.068 164.55 325.034 165.194C329.001 165.838 332.738 163.144 333.382 159.178Z" fill="#FFAC00"/>
<path d="M314.145 155.377H284.022C283.13 155.377 282.407 156.101 282.407 156.993V159.01C282.407 159.902 283.13 160.625 284.022 160.625H314.145C315.037 160.625 315.76 159.902 315.76 159.01V156.993C315.76 156.101 315.037 155.377 314.145 155.377Z" fill="#FFAC00"/>
<path d="M326.103 185.101H189.088V192.926H326.103V185.101Z" fill="#1C2B6B"/>
<path d="M330.597 192.926H184.598C178.88 192.926 174.244 197.562 174.244 203.281V227.104C174.244 232.823 178.88 237.459 184.598 237.459H330.597C336.315 237.459 340.951 232.823 340.951 227.104V203.281C340.951 197.562 336.315 192.926 330.597 192.926Z" fill="url(#paint4_linear)"/>
<path d="M194.551 227.915H264.679C266.127 227.915 267.517 228.49 268.541 229.515C269.566 230.54 270.141 231.929 270.141 233.378V237.459H189.088V233.378C189.088 231.929 189.663 230.54 190.688 229.515C191.712 228.49 193.102 227.915 194.551 227.915Z" fill="url(#paint5_linear)"/>
<path d="M195.611 210.359C195.611 211.005 195.419 211.636 195.06 212.173C194.702 212.71 194.192 213.129 193.595 213.376C192.999 213.623 192.342 213.688 191.709 213.562C191.076 213.436 190.494 213.125 190.037 212.668C189.581 212.211 189.27 211.63 189.144 210.996C189.018 210.363 189.082 209.706 189.33 209.11C189.577 208.513 189.995 208.003 190.532 207.644C191.069 207.286 191.7 207.094 192.346 207.094C192.775 207.094 193.199 207.179 193.595 207.343C193.991 207.507 194.351 207.747 194.654 208.05C194.958 208.354 195.198 208.714 195.362 209.11C195.526 209.506 195.611 209.93 195.611 210.359Z" fill="#20D357"/>
<path d="M205.266 210.359C205.266 211.005 205.074 211.637 204.715 212.174C204.356 212.711 203.846 213.129 203.249 213.376C202.652 213.623 201.995 213.688 201.362 213.561C200.729 213.435 200.147 213.123 199.69 212.666C199.234 212.209 198.924 211.626 198.798 210.993C198.673 210.359 198.739 209.702 198.987 209.106C199.235 208.509 199.654 208 200.192 207.642C200.729 207.283 201.361 207.093 202.007 207.094C202.435 207.094 202.86 207.179 203.255 207.343C203.651 207.507 204.011 207.748 204.313 208.051C204.616 208.354 204.856 208.714 205.019 209.11C205.183 209.506 205.267 209.931 205.266 210.359Z" fill="#FFAC00"/>
<path d="M214.919 210.359C214.919 211.005 214.728 211.637 214.369 212.174C214.01 212.711 213.499 213.129 212.902 213.376C212.306 213.623 211.649 213.688 211.015 213.561C210.382 213.435 209.8 213.123 209.344 212.666C208.887 212.209 208.577 211.626 208.452 210.993C208.326 210.359 208.392 209.702 208.64 209.106C208.888 208.509 209.307 208 209.845 207.642C210.383 207.283 211.014 207.093 211.66 207.094C212.089 207.094 212.513 207.179 212.909 207.343C213.305 207.507 213.664 207.748 213.967 208.051C214.269 208.354 214.509 208.714 214.673 209.11C214.836 209.506 214.92 209.931 214.919 210.359Z" fill="#E64D4E"/>
<path d="M328.973 217.082C332.686 215.545 334.448 211.288 332.911 207.575C331.373 203.863 327.117 202.099 323.405 203.637C319.692 205.175 317.929 209.432 319.467 213.144C321.005 216.857 325.261 218.62 328.973 217.082Z" fill="#FFAC00"/>
<path d="M314.145 207.735H284.022C283.13 207.735 282.407 208.458 282.407 209.35V211.368C282.407 212.26 283.13 212.983 284.022 212.983H314.145C315.037 212.983 315.76 212.26 315.76 211.368V209.35C315.76 208.458 315.037 207.735 314.145 207.735Z" fill="#FFAC00"/>
<path d="M326.103 237.459H189.088V245.284H326.103V237.459Z" fill="#1C2B6B"/>
<path d="M330.597 245.284H184.598C178.88 245.284 174.244 249.92 174.244 255.639V279.462C174.244 285.181 178.88 289.817 184.598 289.817H330.597C336.315 289.817 340.951 285.181 340.951 279.462V255.639C340.951 249.92 336.315 245.284 330.597 245.284Z" fill="url(#paint6_linear)"/>
<path d="M194.551 280.273H264.679C266.127 280.273 267.517 280.848 268.541 281.873C269.566 282.898 270.141 284.287 270.141 285.736V289.817H189.088V285.736C189.088 284.287 189.663 282.898 190.688 281.873C191.712 280.848 193.102 280.273 194.551 280.273Z" fill="url(#paint7_linear)"/>
<path d="M192.347 265.976C194.147 265.976 195.606 264.517 195.606 262.717C195.606 260.917 194.147 259.458 192.347 259.458C190.547 259.458 189.088 260.917 189.088 262.717C189.088 264.517 190.547 265.976 192.347 265.976Z" fill="#20D357"/>
<path d="M202.007 265.976C203.807 265.976 205.266 264.517 205.266 262.717C205.266 260.917 203.807 259.458 202.007 259.458C200.207 259.458 198.748 260.917 198.748 262.717C198.748 264.517 200.207 265.976 202.007 265.976Z" fill="#FFAC00"/>
<path d="M211.661 265.976C213.461 265.976 214.92 264.517 214.92 262.717C214.92 260.917 213.461 259.458 211.661 259.458C209.861 259.458 208.402 260.917 208.402 262.717C208.402 264.517 209.861 265.976 211.661 265.976Z" fill="#E64D4E"/>
<path d="M326.19 269.994C330.208 269.994 333.466 266.736 333.466 262.717C333.466 258.698 330.208 255.441 326.19 255.441C322.172 255.441 318.914 258.698 318.914 262.717C318.914 266.736 322.172 269.994 326.19 269.994Z" fill="#FFAC00"/>
<path d="M314.145 260.093H284.022C283.13 260.093 282.407 260.817 282.407 261.708V263.726C282.407 264.618 283.13 265.341 284.022 265.341H314.145C315.037 265.341 315.76 264.618 315.76 263.726V261.708C315.76 260.817 315.037 260.093 314.145 260.093Z" fill="#FFAC00"/>
<path d="M326.103 289.817H189.088V297.642H326.103V289.817Z" fill="#1C2B6B"/>
<path d="M330.597 297.642H184.598C178.88 297.642 174.244 302.278 174.244 307.997V331.82C174.244 337.539 178.88 342.175 184.598 342.175H330.597C336.315 342.175 340.951 337.539 340.951 331.82V307.997C340.951 302.278 336.315 297.642 330.597 297.642Z" fill="url(#paint8_linear)"/>
<path d="M194.551 332.631H264.679C266.127 332.631 267.517 333.206 268.541 334.231C269.566 335.256 270.141 336.645 270.141 338.094V342.175H189.088V338.094C189.088 336.645 189.663 335.256 190.688 334.231C191.712 333.206 193.102 332.631 194.551 332.631Z" fill="url(#paint9_linear)"/>
<path d="M195.611 315.075C195.612 315.721 195.421 316.353 195.063 316.891C194.705 317.429 194.196 317.848 193.599 318.096C193.003 318.344 192.346 318.409 191.712 318.284C191.079 318.159 190.497 317.848 190.039 317.392C189.582 316.936 189.271 316.354 189.144 315.72C189.018 315.087 189.082 314.43 189.329 313.833C189.576 313.236 189.994 312.726 190.531 312.367C191.068 312.008 191.7 311.816 192.346 311.816C193.211 311.816 194.04 312.159 194.652 312.77C195.264 313.381 195.609 314.21 195.611 315.075Z" fill="#20D357"/>
<path d="M205.266 315.075C205.267 315.722 205.076 316.354 204.718 316.891C204.36 317.429 203.85 317.849 203.253 318.096C202.656 318.344 201.999 318.41 201.366 318.284C200.732 318.158 200.149 317.847 199.693 317.39C199.236 316.933 198.925 316.351 198.799 315.717C198.673 315.083 198.738 314.426 198.986 313.829C199.234 313.232 199.653 312.722 200.191 312.364C200.729 312.006 201.361 311.815 202.007 311.816C202.871 311.818 203.699 312.161 204.31 312.772C204.92 313.383 205.264 314.211 205.266 315.075Z" fill="#FFAC00"/>
<path d="M214.919 315.075C214.92 315.722 214.73 316.354 214.371 316.891C214.013 317.429 213.503 317.849 212.907 318.096C212.31 318.344 211.653 318.41 211.019 318.284C210.385 318.158 209.803 317.847 209.346 317.39C208.889 316.933 208.578 316.351 208.452 315.717C208.326 315.083 208.391 314.426 208.639 313.829C208.887 313.232 209.306 312.722 209.844 312.364C210.382 312.006 211.014 311.815 211.66 311.816C212.524 311.818 213.352 312.161 213.963 312.772C214.574 313.383 214.918 314.211 214.919 315.075Z" fill="#E64D4E"/>
<path d="M328.973 321.798C332.686 320.26 334.448 316.003 332.911 312.291C331.373 308.578 327.117 306.815 323.405 308.353C319.692 309.891 317.929 314.147 319.467 317.86C321.005 321.573 325.261 323.336 328.973 321.798Z" fill="#FFAC00"/>
<path d="M314.145 312.452H284.022C283.13 312.452 282.407 313.175 282.407 314.067V316.084C282.407 316.976 283.13 317.699 284.022 317.699H314.145C315.037 317.699 315.76 316.976 315.76 316.084V314.067C315.76 313.175 315.037 312.452 314.145 312.452Z" fill="#FFAC00"/>
<path d="M326.103 342.175H189.088V350H326.103V342.175Z" fill="#1C2B6B"/>
<path d="M433.775 233.705H413.16C409.647 233.705 406.8 236.553 406.8 240.066V260.682C406.8 264.195 409.647 267.043 413.16 267.043H433.775C437.288 267.043 440.135 264.195 440.135 260.682V240.066C440.135 236.553 437.288 233.705 433.775 233.705Z" fill="url(#paint10_linear)"/>
<path d="M432.114 259.02C436.891 254.243 436.891 246.498 432.114 241.721C427.338 236.944 419.593 236.944 414.817 241.721C410.04 246.498 410.04 254.243 414.817 259.02C419.593 263.798 427.338 263.798 432.114 259.02Z" fill="#1C2B6B"/>
<path d="M421.666 250.374C421.667 250.808 421.54 251.233 421.299 251.594C421.059 251.956 420.717 252.237 420.316 252.404C419.915 252.571 419.474 252.615 419.048 252.53C418.622 252.446 418.231 252.237 417.924 251.93C417.617 251.623 417.408 251.232 417.324 250.806C417.24 250.38 417.284 249.939 417.45 249.538C417.617 249.137 417.899 248.795 418.26 248.555C418.621 248.314 419.046 248.186 419.48 248.188C420.06 248.188 420.616 248.418 421.026 248.828C421.436 249.238 421.666 249.794 421.666 250.374Z" fill="#0B1228"/>
<path d="M429.664 250.374C429.664 250.806 429.536 251.229 429.296 251.589C429.056 251.948 428.714 252.229 428.315 252.394C427.915 252.56 427.476 252.603 427.052 252.518C426.628 252.434 426.238 252.226 425.932 251.92C425.627 251.614 425.418 251.225 425.334 250.801C425.25 250.376 425.293 249.937 425.458 249.537C425.624 249.138 425.904 248.796 426.264 248.556C426.623 248.316 427.046 248.188 427.478 248.188C428.058 248.188 428.614 248.418 429.024 248.828C429.434 249.238 429.664 249.794 429.664 250.374Z" fill="#0B1228"/>
<path d="M561.036 336.934H542.964C541.059 336.934 539.232 336.177 537.885 334.83C536.538 333.483 535.781 331.656 535.781 329.751C535.781 327.845 536.538 326.018 537.885 324.671C539.232 323.324 541.059 322.567 542.964 322.567H561.036C568.058 322.561 574.79 319.769 579.755 314.804C584.721 309.84 587.514 303.107 587.522 296.085V256.362C587.575 254.493 588.355 252.719 589.695 251.415C591.036 250.112 592.832 249.383 594.701 249.383C596.571 249.383 598.367 250.112 599.707 251.415C601.048 252.719 601.828 254.493 601.881 256.362V296.085C601.869 306.915 597.561 317.298 589.904 324.956C582.247 332.614 571.865 336.921 561.036 336.934Z" fill="url(#paint11_linear)"/>
<path d="M556.238 344.916H484.594V344.333C484.594 337.86 487.166 331.652 491.742 327.075C496.319 322.498 502.526 319.926 508.998 319.926H531.834C538.307 319.926 544.514 322.498 549.09 327.075C553.667 331.652 556.238 337.86 556.238 344.333V344.916Z" fill="url(#paint12_radial)"/>
<path d="M542.567 344.916H492.862V319.845C492.861 316.579 493.504 313.345 494.753 310.328C496.002 307.311 497.834 304.57 500.143 302.261C502.452 299.952 505.193 298.121 508.21 296.872C511.227 295.624 514.461 294.982 517.726 294.983C524.318 294.983 530.639 297.602 535.3 302.263C539.961 306.925 542.579 313.247 542.579 319.839V344.91L542.567 344.916Z" fill="url(#paint13_linear)"/>
<path d="M563.234 213.397C563.969 213.396 564.697 213.54 565.377 213.821C566.057 214.102 566.674 214.514 567.195 215.034C567.715 215.554 568.128 216.171 568.409 216.851C568.691 217.53 568.836 218.259 568.836 218.994V266.956H534.883V241.768C534.881 238.043 535.612 234.354 537.036 230.912C538.46 227.47 540.548 224.342 543.18 221.708C545.813 219.073 548.939 216.983 552.38 215.557C555.821 214.131 559.509 213.397 563.234 213.397Z" fill="#F2DAD4"/>
<path d="M481.195 213.397C480.46 213.396 479.731 213.54 479.052 213.821C478.372 214.102 477.754 214.514 477.234 215.034C476.714 215.554 476.301 216.171 476.019 216.851C475.738 217.53 475.593 218.259 475.593 218.994V266.956H509.535V241.768C509.538 238.044 508.807 234.356 507.384 230.914C505.961 227.472 503.875 224.345 501.243 221.71C498.611 219.075 495.486 216.985 492.046 215.559C488.606 214.132 484.919 213.398 481.195 213.397Z" fill="#E64D4E"/>
<path d="M496.574 250.374H488.103C487.921 250.374 487.741 250.338 487.573 250.268C487.405 250.198 487.253 250.096 487.124 249.967C486.996 249.838 486.894 249.685 486.825 249.517C486.756 249.349 486.721 249.168 486.722 248.986V227.973C486.722 227.607 486.867 227.255 487.126 226.996C487.385 226.737 487.737 226.591 488.103 226.591C490.716 226.591 493.222 227.629 495.07 229.477C496.918 231.325 497.956 233.832 497.956 236.445V248.963C497.96 249.147 497.927 249.33 497.859 249.501C497.792 249.672 497.69 249.828 497.562 249.959C497.433 250.09 497.279 250.195 497.11 250.266C496.94 250.337 496.758 250.374 496.574 250.374Z" fill="url(#paint14_linear)"/>
<path d="M563.234 213.397C563.969 213.396 564.697 213.54 565.377 213.821C566.057 214.102 566.674 214.514 567.195 215.034C567.715 215.554 568.128 216.171 568.409 216.851C568.691 217.53 568.836 218.259 568.836 218.994V266.956H534.883V241.768C534.881 238.043 535.612 234.354 537.036 230.912C538.46 227.47 540.548 224.342 543.18 221.708C545.813 219.073 548.939 216.983 552.38 215.557C555.821 214.131 559.509 213.397 563.234 213.397Z" fill="#E64D4E"/>
<path d="M547.855 250.374H556.325C556.507 250.374 556.687 250.338 556.855 250.268C557.023 250.198 557.176 250.096 557.304 249.967C557.433 249.838 557.534 249.685 557.604 249.517C557.673 249.349 557.708 249.168 557.707 248.986V227.973C557.707 227.607 557.562 227.255 557.302 226.996C557.043 226.737 556.692 226.591 556.325 226.591C553.712 226.591 551.205 227.629 549.357 229.477C547.508 231.325 546.469 233.831 546.467 236.445V248.963C546.464 249.147 546.498 249.33 546.566 249.501C546.634 249.672 546.736 249.828 546.865 249.959C546.994 250.091 547.148 250.195 547.318 250.266C547.488 250.337 547.67 250.374 547.855 250.374Z" fill="url(#paint15_linear)"/>
<path d="M510.299 304.271H534.137C553.301 304.271 568.837 288.735 568.837 269.571C568.837 250.407 553.301 234.871 534.137 234.871H510.299C491.135 234.871 475.599 250.407 475.599 269.571C475.599 288.735 491.135 304.271 510.299 304.271Z" fill="#E64D4E"/>
<path d="M511.995 304.271H531.916C534.89 304.271 537.742 303.09 539.845 300.988C541.949 298.885 543.131 296.033 543.133 293.059C543.133 290.084 541.951 287.231 539.847 285.127C537.744 283.023 534.891 281.841 531.916 281.841H511.995C510.523 281.842 509.065 282.133 507.705 282.697C506.345 283.261 505.11 284.088 504.07 285.129C503.029 286.171 502.204 287.407 501.641 288.768C501.078 290.129 500.789 291.587 500.79 293.059C500.79 296.032 501.97 298.883 504.072 300.985C506.173 303.088 509.023 304.27 511.995 304.271Z" fill="#E28D91"/>
<path d="M514.642 293.45C514.835 293.202 515.076 292.995 515.349 292.841C515.623 292.686 515.924 292.587 516.236 292.55C516.548 292.512 516.864 292.536 517.167 292.62C517.47 292.705 517.753 292.848 518 293.042C518.699 293.571 519.508 293.935 520.367 294.109V290.89C519.8 290.593 519.331 290.14 519.014 289.584L517.376 286.756C517.079 286.239 516.923 285.652 516.923 285.055C516.924 284.458 517.082 283.872 517.381 283.355C517.679 282.838 518.109 282.409 518.626 282.111C519.143 281.812 519.729 281.655 520.326 281.655H523.591C524.185 281.659 524.768 281.82 525.282 282.121C525.795 282.421 526.22 282.851 526.515 283.367C526.81 283.884 526.964 284.468 526.963 285.063C526.961 285.658 526.804 286.242 526.506 286.756L524.873 289.584C524.554 290.138 524.085 290.59 523.521 290.89V294.15C524.393 294 525.22 293.655 525.94 293.141C526.45 292.764 527.089 292.606 527.716 292.7C528.343 292.795 528.907 293.135 529.284 293.645C529.66 294.155 529.819 294.794 529.724 295.422C529.629 296.049 529.29 296.612 528.779 296.989C526.749 298.386 524.336 299.119 521.871 299.087C519.407 299.054 517.014 298.258 515.021 296.808C514.525 296.413 514.207 295.837 514.136 295.207C514.065 294.578 514.247 293.946 514.642 293.45Z" fill="#192B59"/>
<path d="M508.905 344.922H525.672C525.672 342.698 524.789 340.565 523.217 338.993C521.645 337.421 519.512 336.537 517.289 336.537C515.065 336.537 512.933 337.421 511.361 338.993C509.789 340.565 508.905 342.698 508.905 344.922Z" fill="#192B59"/>
<path d="M487.632 344.922H504.399C504.399 342.698 503.515 340.565 501.943 338.993C500.371 337.421 498.239 336.537 496.015 336.537C493.792 336.537 491.659 337.421 490.087 338.993C488.515 340.565 487.632 342.698 487.632 344.922Z" fill="#192B59"/>
<path d="M542.327 279.369C545.496 279.369 548.064 276.801 548.064 273.632C548.064 270.463 545.496 267.895 542.327 267.895C539.159 267.895 536.591 270.463 536.591 273.632C536.591 276.801 539.159 279.369 542.327 279.369Z" fill="#192B59"/>
<path d="M501.588 279.369C504.756 279.369 507.325 276.801 507.325 273.632C507.325 270.463 504.756 267.895 501.588 267.895C498.42 267.895 495.852 270.463 495.852 273.632C495.852 276.801 498.42 279.369 501.588 279.369Z" fill="#192B59"/>
<defs>
<linearGradient id="paint0_linear" x1="426.949" y1="335.727" x2="440.999" y2="335.727" gradientUnits="userSpaceOnUse">
<stop stop-color="#4E9CFF"/>
<stop offset="0.19" stop-color="#4190F5"/>
<stop offset="0.71" stop-color="#2274DD"/>
<stop offset="1" stop-color="#176AD4"/>
</linearGradient>
<linearGradient id="paint1_linear" x1="4160.4" y1="9992.94" x2="4230.76" y2="9992.94" gradientUnits="userSpaceOnUse">
<stop stop-color="#4E9CFF"/>
<stop offset="0.19" stop-color="#4190F5"/>
<stop offset="0.71" stop-color="#2274DD"/>
<stop offset="1" stop-color="#176AD4"/>
</linearGradient>
<linearGradient id="paint2_linear" x1="49999.5" y1="12577.9" x2="97667.5" y2="12577.9" gradientUnits="userSpaceOnUse">
<stop stop-color="#4E9CFF"/>
<stop offset="0.19" stop-color="#4190F5"/>
<stop offset="0.71" stop-color="#2274DD"/>
<stop offset="1" stop-color="#176AD4"/>
</linearGradient>
<linearGradient id="paint3_linear" x1="229.623" y1="188.372" x2="229.623" y2="175.166" gradientUnits="userSpaceOnUse">
<stop stop-color="#E5E5E5"/>
<stop offset="0.48" stop-color="#F4F4F4"/>
<stop offset="1" stop-color="white"/>
</linearGradient>
<linearGradient id="paint4_linear" x1="49999.5" y1="16629.3" x2="97667.5" y2="16629.3" gradientUnits="userSpaceOnUse">
<stop stop-color="#4E9CFF"/>
<stop offset="0.19" stop-color="#4190F5"/>
<stop offset="0.71" stop-color="#2274DD"/>
<stop offset="1" stop-color="#176AD4"/>
</linearGradient>
<linearGradient id="paint5_linear" x1="32113.6" y1="4168.66" x2="32113.6" y2="3952.48" gradientUnits="userSpaceOnUse">
<stop stop-color="#E5E5E5"/>
<stop offset="0.48" stop-color="#F4F4F4"/>
<stop offset="1" stop-color="white"/>
</linearGradient>
<linearGradient id="paint6_linear" x1="49999.5" y1="20680.8" x2="97667.5" y2="20680.8" gradientUnits="userSpaceOnUse">
<stop stop-color="#4E9CFF"/>
<stop offset="0.19" stop-color="#4190F5"/>
<stop offset="0.71" stop-color="#2274DD"/>
<stop offset="1" stop-color="#176AD4"/>
</linearGradient>
<linearGradient id="paint7_linear" x1="32113.6" y1="5078.16" x2="32113.6" y2="4861.97" gradientUnits="userSpaceOnUse">
<stop stop-color="#E5E5E5"/>
<stop offset="0.48" stop-color="#F4F4F4"/>
<stop offset="1" stop-color="white"/>
</linearGradient>
<linearGradient id="paint8_linear" x1="49999.5" y1="24732.3" x2="97667.5" y2="24732.3" gradientUnits="userSpaceOnUse">
<stop stop-color="#4E9CFF"/>
<stop offset="0.19" stop-color="#4190F5"/>
<stop offset="0.71" stop-color="#2274DD"/>
<stop offset="1" stop-color="#176AD4"/>
</linearGradient>
<linearGradient id="paint9_linear" x1="32113.6" y1="5987.55" x2="32113.6" y2="5771.37" gradientUnits="userSpaceOnUse">
<stop stop-color="#E5E5E5"/>
<stop offset="0.48" stop-color="#F4F4F4"/>
<stop offset="1" stop-color="white"/>
</linearGradient>
<linearGradient id="paint10_linear" x1="24118.3" y1="14144.3" x2="25632.9" y2="15366.7" gradientUnits="userSpaceOnUse">
<stop stop-color="#4E9CFF"/>
<stop offset="0.19" stop-color="#4190F5"/>
<stop offset="0.71" stop-color="#2274DD"/>
<stop offset="1" stop-color="#176AD4"/>
</linearGradient>
<linearGradient id="paint11_linear" x1="535.787" y1="293.059" x2="601.881" y2="293.059" gradientUnits="userSpaceOnUse">
<stop stop-color="#A50404"/>
<stop offset="1" stop-color="#E64D4E"/>
</linearGradient>
<radialGradient id="paint12_radial" cx="0" cy="0" r="1" gradientUnits="userSpaceOnUse" gradientTransform="translate(515.337 321.252) rotate(180) scale(37.7909 21.3098)">
<stop offset="0.21" stop-color="#A50404"/>
<stop offset="1" stop-color="#E64D4E"/>
</radialGradient>
<linearGradient id="paint13_linear" x1="518.391" y1="276.949" x2="517.633" y2="338.916" gradientUnits="userSpaceOnUse">
<stop stop-color="#A50404"/>
<stop offset="0.82" stop-color="#E64D4E"/>
</linearGradient>
<linearGradient id="paint14_linear" x1="-9810.27" y1="10638.2" x2="-10539.4" y2="9694.7" gradientUnits="userSpaceOnUse">
<stop stop-color="#A50404"/>
<stop offset="1" stop-color="#E64D4E"/>
</linearGradient>
<linearGradient id="paint15_linear" x1="-8829.17" y1="10293.1" x2="-8566.9" y2="9443.78" gradientUnits="userSpaceOnUse">
<stop stop-color="#A50404"/>
<stop offset="1" stop-color="#E64D4E"/>
</linearGradient>
</defs>
</svg>
