<svg width="704" height="308" viewBox="0 0 704 308" fill="none" xmlns="http://www.w3.org/2000/svg">
<path d="M116.826 274.057V242.536H32.0806C21.3829 242.536 13.3618 240.106 8.01707 235.248C2.67236 230.389 0 223.781 0 215.423C0.0148997 213.197 0.414719 210.99 1.18163 208.901C2.09414 206.458 3.2836 204.129 4.72654 201.959C6.30479 199.528 7.93637 197.183 9.6213 194.922C11.3062 192.662 13.3905 189.898 15.8741 186.629L105.346 66.4944C111.197 58.5897 116.007 52.8577 119.776 49.2981C123.423 45.7796 128.308 43.854 133.365 43.9423C150.457 43.9423 159.005 53.7778 159.008 73.4487V204.691H166.27C174.935 204.691 181.884 205.873 187.117 208.238C192.349 210.603 194.966 215.784 194.966 223.782C194.966 230.311 192.827 235.069 188.549 238.057C184.271 241.046 177.857 242.538 169.306 242.536H159.008V274.057C159.008 282.758 157.093 289.227 153.264 293.465C149.434 297.703 144.317 299.821 137.911 299.818C131.62 299.818 126.528 297.643 122.636 293.292C118.743 288.942 116.807 282.53 116.826 274.057ZM44.2334 204.691H116.826V106.09L44.2334 204.691Z" fill="#00B1FF"/>
<path d="M625.86 274.057V242.536H541.115C530.42 242.536 522.399 240.106 517.051 235.248C511.704 230.389 509.031 223.781 509.034 215.423C509.049 213.197 509.449 210.99 510.216 208.901C511.128 206.458 512.318 204.129 513.761 201.959C515.339 199.528 516.971 197.183 518.655 194.922C520.34 192.662 522.423 189.898 524.904 186.629L614.38 66.4944C620.231 58.5897 625.041 52.8577 628.81 49.2981C632.457 45.7796 637.342 43.854 642.399 43.9423C659.486 43.9423 668.034 53.7778 668.042 73.4487V204.691H675.304C683.969 204.691 690.918 205.873 696.151 208.238C701.383 210.603 704 215.784 704 223.782C704 230.311 701.861 235.069 697.583 238.057C693.305 241.046 686.891 242.538 678.34 242.536H668.042V274.057C668.042 282.758 666.127 289.227 662.298 293.465C658.469 297.703 653.349 299.821 646.941 299.818C640.65 299.818 635.559 297.643 631.67 293.292C627.78 288.942 625.844 282.53 625.86 274.057ZM553.267 204.691H625.86V106.09L553.267 204.691Z" fill="#00B1FF"/>
<path d="M461.675 249.222C460.271 244.421 458.496 239.738 456.366 235.215C452.787 227.541 447.915 220.545 441.965 214.537C431.129 203.644 418.369 197.687 406.027 191.931C390.756 184.808 376.335 178.076 368.149 162.602C360.058 147.309 357.584 129.54 356.94 117.325C356.23 103.964 357.49 94.1386 357.502 94.0397C357.56 93.6215 357.535 93.196 357.428 92.7877C357.321 92.3794 357.135 91.9963 356.88 91.6607C356.625 91.3251 356.306 91.0435 355.942 90.8322C355.578 90.6209 355.176 90.4841 354.759 90.4297C354.342 90.3753 353.918 90.4044 353.513 90.5152C353.107 90.6261 352.727 90.8165 352.395 91.0755C352.063 91.3345 351.786 91.657 351.578 92.0244C351.371 92.3917 351.238 92.7966 351.188 93.2157C351.13 93.6277 349.846 103.614 350.572 117.523C350.954 125.368 351.987 133.168 353.662 140.841C355.713 150.02 358.688 158.351 362.524 165.601C364.702 169.744 367.425 173.574 370.619 176.989C373.621 180.18 376.957 183.036 380.569 185.509C387.581 190.374 395.237 193.946 403.344 197.728C426.628 208.592 450.679 219.815 458.569 263.905C460.809 264.144 463.007 264.396 465.162 264.659C464.316 259.447 463.151 254.291 461.675 249.222Z" fill="#95CEF4"/>
<path d="M380.716 185.587C387.691 190.403 395.293 193.954 403.343 197.707L404.254 198.119C406.241 196.767 408.159 195.313 409.998 193.765C408.669 193.134 407.34 192.529 406.014 191.898C399.647 188.932 393.414 186.028 387.724 182.509C385.473 183.721 383.13 184.751 380.716 185.587Z" fill="#37ABDD"/>
<path d="M363.476 242.35C363.979 242.694 364.545 242.934 365.14 243.058C365.736 243.182 366.35 243.186 366.948 243.072C367.545 242.957 368.115 242.725 368.623 242.389C369.131 242.053 369.568 241.62 369.909 241.114L370.069 240.884C370.413 240.379 370.653 239.811 370.778 239.213C370.903 238.615 370.908 237.998 370.795 237.398C370.682 236.797 370.452 236.225 370.118 235.714C369.785 235.203 369.354 234.763 368.851 234.42L237.903 144.747C237.4 144.403 236.834 144.163 236.238 144.039C235.643 143.915 235.028 143.911 234.431 144.025C233.833 144.14 233.264 144.372 232.756 144.708C232.248 145.044 231.811 145.477 231.469 145.983L231.314 146.213C230.971 146.719 230.732 147.287 230.609 147.885C230.485 148.483 230.481 149.1 230.595 149.7C230.709 150.3 230.94 150.871 231.275 151.381C231.609 151.892 232.041 152.331 232.544 152.673L363.476 242.35Z" fill="#F4C09B"/>
<path d="M366.082 248.789C367.749 248.789 369.391 248.381 370.866 247.6C372.341 246.819 373.604 245.689 374.546 244.307L374.702 244.076C376.229 241.822 376.804 239.052 376.3 236.373C375.796 233.694 374.255 231.325 372.015 229.785L241.066 140.096C238.821 138.562 236.062 137.985 233.394 138.491C230.726 138.997 228.367 140.544 226.833 142.794L226.686 143.008C225.151 145.261 224.571 148.034 225.071 150.716C225.571 153.399 227.111 155.773 229.353 157.316L360.317 247.001C362.015 248.168 364.024 248.792 366.082 248.789Z" fill="#F9C29D"/>
<path d="M398.884 195.602H334.879V287.887H398.884V195.602Z" fill="#F9C29D"/>
<path d="M459.115 267.176C458.943 266.059 458.759 264.96 458.565 263.881C435.568 261.409 408.071 259.971 378.53 259.971C297.727 259.971 232.348 270.724 232.348 283.985C232.348 294.734 275.383 303.835 334.875 306.896V270.172H398.88V307.773C419.805 307.295 439.253 306.092 456.358 304.329C460.576 294.915 461.491 282.478 459.115 267.176Z" fill="#092054"/>
<path d="M524.835 283.99C524.835 276.046 501.35 269.01 465.163 264.626C465.245 265.141 465.331 265.66 465.413 266.184C466.276 271.572 466.725 277.02 466.755 282.478C466.8 287.755 466.236 293.019 465.072 298.166C464.646 299.978 464.121 301.766 463.501 303.522C500.632 299.183 524.835 292.048 524.835 283.99Z" fill="#092054"/>
<path d="M466.754 282.49C466.724 277.032 466.275 271.585 465.412 266.196C465.33 265.673 465.244 265.154 465.162 264.639C463.009 264.364 460.812 264.113 458.569 263.885C458.76 264.964 458.943 266.063 459.118 267.181C461.49 282.482 460.554 294.92 456.341 304.333C458.778 304.078 461.164 303.814 463.5 303.542C464.12 301.787 464.645 299.999 465.072 298.187C466.236 293.037 466.8 287.77 466.754 282.49Z" fill="#95CEF4"/>
<path d="M334.637 270.452V306.9C348.492 307.617 363.238 308 378.538 308C385.427 308 392.209 307.922 398.843 307.773V270.452H334.637Z" fill="#BE2454"/>
<path d="M398.814 270.452H334.637V283.128H398.814V270.452Z" fill="#AA1149"/>
<path d="M398.827 246.227H334.637V258.904H398.827V246.227Z" fill="#DF8C79"/>
<path d="M315.997 202.429L232.634 110.457C231.809 109.545 231.377 108.341 231.435 107.11C231.493 105.878 232.035 104.72 232.942 103.89L233.151 103.701C233.601 103.29 234.127 102.972 234.699 102.765C235.271 102.558 235.878 102.466 236.485 102.495C237.092 102.523 237.688 102.672 238.238 102.932C238.789 103.192 239.282 103.558 239.691 104.01L328.892 202.429H315.997Z" fill="#F4C09B"/>
<path d="M313.515 208.052H341.587L243.84 100.215C242.935 99.2164 241.842 98.4064 240.625 97.8316C239.408 97.2567 238.09 96.9284 236.747 96.8652C235.403 96.8021 234.06 97.0054 232.795 97.4636C231.53 97.9218 230.367 98.6259 229.373 99.5356L229.176 99.7169C227.169 101.554 225.969 104.115 225.84 106.839C225.711 109.563 226.662 112.227 228.487 114.248L313.515 208.052Z" fill="#F9C29D"/>
<path d="M301.944 188.945L248.84 73.1768C247.835 70.9851 248.902 68.3401 251.224 67.2648L251.478 67.1495C253.801 66.0742 256.496 66.9806 257.501 69.1682L312.448 188.945H301.944Z" fill="#F4C09B"/>
<path d="M298.351 194.58H321.208L262.586 66.7951C261.777 65.0638 260.493 63.6009 258.883 62.5789C257.274 61.5569 255.406 61.0185 253.502 61.0273C251.989 61.0264 250.493 61.3567 249.12 61.9955L248.87 62.1108C243.737 64.488 241.431 70.4947 243.733 75.5004L298.351 194.58Z" fill="#F9C29D"/>
<path d="M320.609 254.677H412.629C414.117 254.677 415.545 255.271 416.597 256.327C417.65 257.384 418.241 258.818 418.241 260.313V268.202C418.241 269.697 417.65 271.13 416.597 272.187C415.545 273.244 414.117 273.838 412.629 273.838H320.609C319.12 273.838 317.693 273.244 316.64 272.187C315.587 271.13 314.996 269.697 314.996 268.202V260.313C314.996 259.572 315.14 258.839 315.422 258.155C315.704 257.471 316.118 256.85 316.639 256.326C317.16 255.803 317.779 255.388 318.46 255.105C319.142 254.822 319.872 254.676 320.609 254.677Z" fill="#BE2454"/>
<path d="M311.409 54.2626C311.341 55.6166 311.305 56.9899 311.303 58.3824C311.303 92.3629 333.2 119.912 360.209 119.912C387.219 119.912 409.112 92.3629 409.112 58.3824C409.112 57.0023 409.079 55.6345 409.005 54.2626H311.409Z" fill="#1D6DCC"/>
<path d="M342.666 87.7858C307.053 77.7539 315.997 81.5689 315.895 84.4363C321.249 98.8228 330.899 110.169 342.764 115.871H342.785L343.281 116.101L343.347 116.13L343.823 116.349L343.909 116.386L344.373 116.588L344.471 116.629L344.73 116.744C349.63 118.817 354.893 119.886 360.21 119.888C387.219 119.888 409.113 92.3547 409.113 58.37C409.113 56.9899 409.08 55.5191 409.006 54.2831H376.843C384.405 71.1828 376.991 97.4592 342.666 87.7858Z" fill="#0F63B7"/>
<path d="M355.91 111.8C350.594 111.811 345.331 110.748 340.434 108.673C340.343 108.673 340.257 108.562 340.171 108.525C340.085 108.488 340.105 108.476 340.073 108.463C339.917 108.397 339.765 108.319 339.609 108.249L339.523 108.208L339.047 107.99L338.985 107.957C338.817 107.882 338.653 107.804 338.489 107.722C330.123 103.701 322.861 96.8783 317.429 88.1648C322.988 100.776 331.965 110.672 342.785 115.875H342.805L343.302 116.11L343.367 116.139L343.843 116.353C343.871 116.369 343.899 116.383 343.929 116.394L344.393 116.596L344.491 116.637L344.75 116.752C349.644 118.82 354.9 119.885 360.21 119.888C387.219 119.888 409.112 92.3547 409.112 58.37C409.112 56.9899 409.079 55.5191 409.005 54.2831H404.714C403.056 86.0142 381.84 111.8 355.91 111.8Z" fill="#0B61A8"/>
<path d="M360.209 71.7348C387.22 71.7348 409.116 63.807 409.116 54.0277C409.116 44.2483 387.22 36.3206 360.209 36.3206C333.199 36.3206 311.303 44.2483 311.303 54.0277C311.303 63.807 333.199 71.7348 360.209 71.7348Z" fill="#95CEF4"/>
<path d="M360.209 69.4319C387.22 69.4319 409.116 61.5041 409.116 51.7248C409.116 41.9454 387.22 34.0176 360.209 34.0176C333.199 34.0176 311.303 41.9454 311.303 51.7248C311.303 61.5041 333.199 69.4319 360.209 69.4319Z" fill="#00C3FF"/>
<path d="M376.002 41.8123C376.002 51.5929 354.109 59.5277 327.095 59.5277C323.157 59.5277 319.3 59.3588 315.652 59.0415C323.337 65.176 340.397 69.4401 360.21 69.4401C387.219 69.4401 409.112 61.5135 409.112 51.7247C409.112 43.3738 393.144 36.37 371.653 34.5037C374.447 36.7326 376.002 39.2086 376.002 41.8123Z" fill="#00B1FF"/>
<path d="M339.876 0.32135H339.318C337.093 0.32135 335.289 2.13267 335.289 4.36704V53.1296C335.289 55.364 337.093 57.1753 339.318 57.1753H339.876C342.101 57.1753 343.905 55.364 343.905 53.1296V4.36704C343.905 2.13267 342.101 0.32135 339.876 0.32135Z" fill="#F2F0F0"/>
<path d="M340.623 48.5401C340.623 50.773 338.982 52.6599 336.774 52.6599H336.302C335.967 52.6058 335.628 52.5796 335.289 52.5816V53.1007C335.289 55.3337 337.751 57.1918 339.958 57.1918H340.43C340.954 57.1833 341.471 57.0703 341.951 56.8593C342.431 56.6484 342.864 56.3437 343.226 55.963C343.587 55.5823 343.87 55.1332 344.057 54.6418C344.244 54.1504 344.332 53.6266 344.315 53.1007V4.02921C344.315 1.91985 343.085 0.189513 340.623 0V48.5401Z" fill="#CCCACA"/>
<path d="M380.904 0.32135H380.346C378.121 0.32135 376.317 2.13267 376.317 4.36704V53.1296C376.317 55.364 378.121 57.1753 380.346 57.1753H380.904C383.13 57.1753 384.934 55.364 384.934 53.1296V4.36704C384.934 2.13267 383.13 0.32135 380.904 0.32135Z" fill="#F2F0F0"/>
<path d="M381.241 48.5401C381.257 49.0695 381.168 49.5969 380.979 50.0915C380.79 50.5861 380.505 51.0382 380.141 51.4215C379.777 51.8047 379.341 52.1116 378.858 52.3242C378.375 52.5368 377.854 52.6509 377.327 52.6599H376.855C376.728 52.6599 377.138 52.594 376.317 52.5816V53.1007C376.353 54.1949 376.81 55.2324 377.592 55.9953C378.374 56.7582 379.42 57.187 380.511 57.1918H380.982C381.51 57.1848 382.03 57.0733 382.515 56.8637C382.999 56.6541 383.437 56.3506 383.804 55.9705C384.171 55.5903 384.46 55.1412 384.654 54.6487C384.848 54.1562 384.943 53.6302 384.934 53.1007V4.02921C384.934 1.91985 383.703 0.189513 381.241 0V48.5401Z" fill="#CCCACA"/>
<path d="M360.772 206.816C399.446 206.816 430.907 175.225 430.907 136.392C430.938 126.989 429.079 117.677 425.442 109.013C421.804 100.349 416.462 92.511 409.736 85.9689C407.649 83.9847 404.869 82.9047 401.995 82.962C399.122 83.0194 396.386 84.2096 394.38 86.2755C392.373 88.3414 391.256 91.1171 391.271 94.003C391.285 96.8888 392.43 99.6531 394.457 101.699C401.278 108.377 405.978 116.934 407.963 126.29C409.948 135.647 409.131 145.384 405.613 154.275C402.096 163.165 396.036 170.811 388.197 176.249C380.359 181.686 371.093 184.672 361.567 184.83C352.041 184.987 342.682 182.309 334.669 177.134C326.657 171.959 320.349 164.517 316.542 155.748C312.735 146.979 311.598 137.274 313.276 127.857C314.953 118.44 319.369 109.732 325.967 102.831C326.962 101.791 327.744 100.563 328.266 99.2189C328.789 97.8748 329.043 96.4404 329.014 94.9978C328.984 93.5551 328.672 92.1324 328.095 90.8109C327.519 89.4893 326.688 88.2948 325.651 87.2955C324.615 86.2962 323.392 85.5118 322.054 84.9869C320.715 84.4621 319.287 84.2071 317.85 84.2365C316.413 84.266 314.996 84.5793 313.68 85.1586C312.364 85.7379 311.175 86.5718 310.179 87.6127C297.604 100.708 290.593 118.2 290.629 136.392C290.637 175.225 322.102 206.816 360.772 206.816Z" fill="#F9C29D"/>
</svg>
